<?xml version="1.0" encoding="UTF-8" standalone="no"?>
<!-- Generator: Adobe Illustrator 19.0.0, SVG Export Plug-In . SVG Version: 6.00 Build 0)  -->

<svg
   xmlns:dc="http://purl.org/dc/elements/1.1/"
   xmlns:cc="http://creativecommons.org/ns#"
   xmlns:rdf="http://www.w3.org/1999/02/22-rdf-syntax-ns#"
   xmlns:svg="http://www.w3.org/2000/svg"
   xmlns="http://www.w3.org/2000/svg"
   xmlns:sodipodi="http://sodipodi.sourceforge.net/DTD/sodipodi-0.dtd"
   xmlns:inkscape="http://www.inkscape.org/namespaces/inkscape"
   version="1.1"
   id="Layer_1"
   x="0px"
   y="0px"
   viewBox="0 0 100 100"
   xml:space="preserve"
   inkscape:version="0.91 r13725"
   sodipodi:docname="digitalocean.svg"
   width="100"
   height="100"><metadata
     id="metadata35"><rdf:RDF><cc:Work
         rdf:about=""><dc:format>image/svg+xml</dc:format><dc:type
           rdf:resource="http://purl.org/dc/dcmitype/StillImage" /><dc:title></dc:title></cc:Work></rdf:RDF></metadata><defs
     id="defs33" /><sodipodi:namedview
     pagecolor="#ffffff"
     bordercolor="#666666"
     borderopacity="1"
     objecttolerance="10"
     gridtolerance="10"
     guidetolerance="10"
     inkscape:pageopacity="0"
     inkscape:pageshadow="2"
     inkscape:window-width="640"
     inkscape:window-height="480"
     id="namedview31"
     showgrid="false"
     inkscape:zoom="1.8236963"
     inkscape:cx="106.71285"
     inkscape:cy="248.34424"
     inkscape:current-layer="XMLID_229_" /><style
     type="text/css"
     id="style3">
	.st0{fill:#0080FF;}
	.st1{fill-rule:evenodd;clip-rule:evenodd;fill:#0080FF;}
</style><g
     id="XMLID_229_"
     transform="translate(0,-254)"><g
       id="XMLID_690_"
       transform="matrix(0.56697393,0,0,0.56697393,-50.347285,228.41527)"><g
         id="XMLID_691_"><g
           id="g8"><g
             id="XMLID_44_"><g
               id="XMLID_48_"><path
                 id="XMLID_49_"
                 class="st0"
                 d="m 177,221.5 0,-34.2 c 36.2,0 64.3,-35.9 50.4,-74 -5.1,-14 -16.4,-25.3 -30.5,-30.4 -38.1,-13.8 -74,14.2 -74,50.4 0,0 0,0 0,0 l -34.1,0 c 0,-57.7 55.8,-102.7 116.3,-83.8 26.4,8.3 47.5,29.3 55.7,55.7 18.9,60.5 -26.1,116.3 -83.8,116.3 z"
                 inkscape:connector-curvature="0"
                 style="fill:#0080ff" /></g><polygon
               id="XMLID_47_"
               class="st1"
               points="143,153.4 177.1,153.4 177.1,153.4 177.1,187.5 143,187.5 143,153.4 "
               style="clip-rule:evenodd;fill:#0080ff;fill-rule:evenodd" /><polygon
               id="XMLID_46_"
               class="st1"
               points="116.9,187.5 143,187.5 143,213.6 143,213.6 116.9,213.6 116.9,213.6 "
               style="clip-rule:evenodd;fill:#0080ff;fill-rule:evenodd" /><path
               id="XMLID_45_"
               class="st1"
               d="m 116.9,187.5 -21.9,0 c 0,0 0,0 0,0 l 0,-21.9 c 0,0 0,0 0,0 l 21.9,0 c 0,0 0,0 0,0 l 0,21.9 z"
               inkscape:connector-curvature="0"
               style="clip-rule:evenodd;fill:#0080ff;fill-rule:evenodd" /></g></g></g></g></g></svg>