<svg
  version="1.1"
  aria-labelledby="ruby-logo-title"
  role="img"
  xmlns="http://www.w3.org/2000/svg"
  viewBox="0 0 64 64">
  <defs>
    <linearGradient id="a" x1="56.23" y1="-19.72" x2="42.73" y2="4.12" gradientTransform="matrix(1, 0, 0, -1, 0, 49.91)" gradientUnits="userSpaceOnUse">
      <stop offset="0" stop-color="#f37657"/>
      <stop offset="0.41" stop-color="#e32f26"/>
      <stop offset="0.99" stop-color="#991b1e"/>
      <stop offset="1" stop-color="#991b1e"/>
    </linearGradient>
    <linearGradient id="b" x1="62.96" y1="0.31" x2="45.55" y2="11.99" gradientTransform="matrix(1, 0, 0, -1, 0, 49.91)" gradientUnits="userSpaceOnUse">
      <stop offset="0" stop-color="#861719"/>
      <stop offset="0.99" stop-color="#911a1d"/>
      <stop offset="1" stop-color="#911a1d"/>
    </linearGradient>
    <linearGradient id="c" x1="49.03" y1="-20.44" x2="31.63" y2="-8.76"/>
    <linearGradient id="d" x1="12.5" y1="8.76" x2="15.2" y2="-8.77" gradientTransform="matrix(1, 0, 0, -1, 0, 49.91)" gradientUnits="userSpaceOnUse">
      <stop offset="0" stop-color="#fff"/>
      <stop offset="0.23" stop-color="#e57353"/>
      <stop offset="0.46" stop-color="#de3e26"/>
      <stop offset="0.99" stop-color="#a51e22"/>
      <stop offset="1" stop-color="#a51e22"/>
    </linearGradient>
    <linearGradient id="e" x1="31.05" y1="25.13" x2="32.05" y2="7.24" gradientTransform="matrix(1, 0, 0, -1, 0, 49.91)" gradientUnits="userSpaceOnUse">
      <stop offset="0" stop-color="#fff"/>
      <stop offset="0.23" stop-color="#e3714e"/>
      <stop offset="0.56" stop-color="#bd2026"/>
      <stop offset="0.99" stop-color="#a71e22"/>
      <stop offset="1" stop-color="#a71e22"/>
    </linearGradient>
    <linearGradient id="f" x1="47.52" y1="41.67" x2="50.49" y2="28.85" gradientTransform="matrix(1, 0, 0, -1, 0, 49.91)" gradientUnits="userSpaceOnUse">
      <stop offset="0" stop-color="#fff"/>
      <stop offset="0.18" stop-color="#e46342"/>
      <stop offset="0.4" stop-color="#c72a27"/>
      <stop offset="0.99" stop-color="#a71e22"/>
      <stop offset="1" stop-color="#a71e22"/>
    </linearGradient>
    <linearGradient id="g" x1="38.43" y1="46.18" x2="51.25" y2="52.59" gradientTransform="matrix(1, 0, 0, -1, 0, 49.91)" gradientUnits="userSpaceOnUse">
      <stop offset="0" stop-color="#fff"/>
      <stop offset="0.54" stop-color="#c82527"/>
      <stop offset="0.99" stop-color="#be2026"/>
      <stop offset="1" stop-color="#be2026"/>
    </linearGradient>
    <linearGradient id="h" x1="1.26" y1="13.23" x2="2.32" y2="2.67" gradientTransform="matrix(1, 0, 0, -1, 0, 49.91)" gradientUnits="userSpaceOnUse">
      <stop offset="0" stop-color="#fff"/>
      <stop offset="0.31" stop-color="#dd4326"/>
      <stop offset="0.99" stop-color="#be2026"/>
      <stop offset="1" stop-color="#be2026"/>
    </linearGradient>
    <linearGradient id="i" x1="-5.99" y1="-0.19" x2="43.61" y2="50.82" gradientTransform="matrix(1, 0, 0, -1, 0, 50)" gradientUnits="userSpaceOnUse">
      <stop offset="0" stop-color="#bd2025"/>
      <stop offset="0.07" stop-color="#fff"/>
      <stop offset="0.17" stop-color="#fff"/>
      <stop offset="0.27" stop-color="#c83227"/>
      <stop offset="0.33" stop-color="#811517"/>
      <stop offset="0.46" stop-color="#a21d21"/>
      <stop offset="0.72" stop-color="#b21f24"/>
      <stop offset="0.99" stop-color="#e62c25"/>
      <stop offset="1" stop-color="#e62c25"/>
    </linearGradient>
    <linearGradient id="j" x1="32" y1="-5.34" x2="17.06" y2="-1.65" gradientTransform="matrix(1, 0, 0, -1, 0, 50)" gradientUnits="userSpaceOnUse">
      <stop offset="0" stop-color="#8b181b"/>
      <stop offset="0.54" stop-color="#991b1f"/>
      <stop offset="0.99" stop-color="#a71e22"/>
      <stop offset="1" stop-color="#a71e22"/>
    </linearGradient>
    <linearGradient id="k" x1="57.67" y1="12.6" x2="44.39" y2="24.49" gradientTransform="matrix(1, 0, 0, -1, 0, 50)" gradientUnits="userSpaceOnUse">
      <stop offset="0" stop-color="#7e1416"/>
      <stop offset="0.99" stop-color="#9e1c20"/>
      <stop offset="1" stop-color="#9e1c20"/>
    </linearGradient>
    <linearGradient id="l" x1="62.54" y1="34.43" x2="55.93" y2="41.5" gradientTransform="matrix(1, 0, 0, -1, 0, 50)" gradientUnits="userSpaceOnUse">
      <stop offset="0" stop-color="#791715"/>
      <stop offset="0.99" stop-color="#9e1d20"/>
      <stop offset="1" stop-color="#9e1d20"/>
    </linearGradient>
    <radialGradient id="m" cx="46.46" cy="24.27" r="16.27" gradientTransform="matrix(1, 0, 0, -1, 0, 50)" gradientUnits="userSpaceOnUse">
      <stop offset="0" stop-color="#a71e22"/>
      <stop offset="0.99" stop-color="#7e1416"/>
      <stop offset="1" stop-color="#7e1416"/>
    </radialGradient>
    <radialGradient id="n" cx="23.93" cy="2.83" r="21.62" gradientTransform="matrix(1, 0, 0, -1, 0, 50)" gradientUnits="userSpaceOnUse">
      <stop offset="0" stop-color="#a21d21"/>
      <stop offset="0.99" stop-color="#811517"/>
      <stop offset="1" stop-color="#811517"/>
    </radialGradient>
    <linearGradient id="o" x1="8.62" y1="-13.83" x2="3.23" y2="4.45" gradientTransform="matrix(1, 0, 0, -1, 0, 50)" gradientUnits="userSpaceOnUse">
      <stop offset="0" stop-color="#8c231c"/>
      <stop offset="0.43" stop-color="#9e1d20"/>
      <stop offset="0.99" stop-color="#b22024"/>
      <stop offset="1" stop-color="#b22024"/>
    </linearGradient>
    <linearGradient id="p" x1="49.95" y1="46.75" x2="62.03" y2="41.41" gradientTransform="matrix(1, 0, 0, -1, 0, 50)" gradientUnits="userSpaceOnUse">
      <stop offset="0" stop-color="#b21f24"/>
      <stop offset="0.44" stop-color="#911a1d"/>
      <stop offset="0.99" stop-color="#791e15"/>
      <stop offset="1" stop-color="#791e15"/>
    </linearGradient>
  </defs>
  <title id="ruby-logo-title">Ruby logo</title>
  <g>
    <polygon points="49.58 42.13 13.04 63.82 60.36 60.61 64 12.9 49.58 42.13" fill="url(#a)"/>
    <polygon points="60.43 60.58 56.37 32.51 45.29 47.14 60.43 60.58" fill="url(#b)"/>
    <polygon points="60.49 60.58 30.7 58.24 13.2 63.76 60.49 60.58" fill="url(#c)"/>
    <polygon points="13.24 63.77 20.69 39.39 4.31 42.89 13.24 63.77" fill="url(#d)"/>
    <polygon points="45.29 47.22 38.44 20.39 18.84 38.77 45.29 47.22" fill="url(#e)"/>
    <polygon points="62.45 20.77 43.92 5.64 38.76 22.32 62.45 20.77" fill="url(#f)"/>
    <polygon points="53.78 0.25 42.89 6.27 36.01 0.17 53.78 0.25" fill="url(#g)"/>
    <polygon points="0 51.07 4.56 42.74 0.87 32.83 0 51.07" fill="url(#h)"/>
    <path d="M0.63,32.6L4.34,43.14l16.14-3.62L38.91,22.39l5.2-16.52L35.92,0.09,22,5.3C17.61,9.38,9.1,17.45,8.8,17.6S3.18,27.81.63,32.6Z" transform="translate(0 -0.09)" fill="#fff"/>
    <path d="M13.67,13.67c9.51-9.43,21.76-15,26.47-10.25s-0.28,16.28-9.79,25.7S8.73,44.42,4,39.67,4.16,23.09,13.67,13.67Z" transform="translate(0 -0.09)" fill="url(#i)"/>
    <path d="M13.24,63.85l7.38-24.46,24.52,7.88C36.28,55.58,26.42,62.61,13.24,63.85Z" transform="translate(0 -0.09)" fill="url(#j)"/>
    <path d="M38.94,22.34l6.3,24.94c7.41-7.79,14.05-16.16,17.31-26.52Z" transform="translate(0 -0.09)" fill="url(#k)"/>
    <path d="M62.49,20.89C65,13.28,65.59,2.38,53.71.35L44,5.74Z" transform="translate(0 -0.09)" fill="url(#l)"/>
    <path d="M0,51C0.35,63.59,9.4,63.78,13.26,63.89L4.35,43.09Z" transform="translate(0 -0.09)" fill="#9e1d20"/>
    <path d="M39,22.38C44.67,25.88,56.14,32.9,56.37,33s4.95-7.73,6-12.21Z" transform="translate(0 -0.09)" fill="url(#m)"/>
    <path d="M20.62,39.39l9.87,19A63.83,63.83,0,0,0,45.08,47.28Z" transform="translate(0 -0.09)" fill="url(#n)"/>
    <path d="M4.31,43.11L2.91,59.77C5.55,63.37,9.18,63.69,13,63.4,10.24,56.55,4.73,42.83,4.31,43.11Z" transform="translate(0 -0.09)" fill="url(#o)"/>
    <path d="M43.9,5.78L63.51,8.53c-1-4.44-4.26-7.3-9.74-8.19Z" transform="translate(0 -0.09)" fill="url(#p)"/>
  </g>
</svg>
